<svg width="31" height="24" viewBox="0 0 31 24" fill="none" xmlns="http://www.w3.org/2000/svg">
<path d="M1.3512 2.71606L2.01596 3.06333L1.3512 2.71606ZM2.75901 1.34255L2.42522 0.67092L2.75901 1.34255ZM2.75901 22.6574L3.09279 21.9858L2.75901 22.6574ZM1.3512 21.284L0.686441 21.6313L1.3512 21.284ZM29.6491 21.284L28.9844 20.9368L29.6491 21.284ZM28.2403 22.6574L27.9065 21.9858L28.2403 22.6574ZM29.6491 2.71606L28.9844 3.06333L29.6491 2.71606ZM28.2403 1.34255L28.5741 0.67092V0.67092L28.2403 1.34255ZM7.44444 15.9643C7.03023 15.9643 6.69444 16.3001 6.69444 16.7143C6.69444 17.1285 7.03023 17.4643 7.44444 17.4643V15.9643ZM13.8889 17.4643C14.3031 17.4643 14.6389 17.1285 14.6389 16.7143C14.6389 16.3001 14.3031 15.9643 13.8889 15.9643V17.4643ZM1 9.67857C0.585786 9.67857 0.25 10.0144 0.25 10.4286C0.25 10.8428 0.585786 11.1786 1 11.1786V9.67857ZM30 11.1786C30.4142 11.1786 30.75 10.8428 30.75 10.4286C30.75 10.0144 30.4142 9.67857 30 9.67857V11.1786ZM1 6.53571C0.585786 6.53571 0.25 6.8715 0.25 7.28571C0.25 7.69993 0.585786 8.03571 1 8.03571V6.53571ZM30 8.03571C30.4142 8.03571 30.75 7.69993 30.75 7.28571C30.75 6.8715 30.4142 6.53571 30 6.53571V8.03571ZM29.25 6.02849V17.9714H30.75V6.02849H29.25ZM24.8448 22.25H6.15587V23.75H24.8448V22.25ZM1.75 17.9714V6.02849H0.25V17.9714H1.75ZM6.15587 1.75H24.8448V0.25H6.15587V1.75ZM1.75 6.02849C1.75 5.13573 1.75061 4.51242 1.79128 4.02694C1.83117 3.55078 1.90565 3.2745 2.01596 3.06333L0.686441 2.3688C0.445554 2.82992 0.344431 3.32977 0.296518 3.90172C0.249387 4.46434 0.25 5.1611 0.25 6.02849H1.75ZM6.15587 0.25C5.26563 0.25 4.5538 0.249445 3.97962 0.295188C3.39727 0.341581 2.89158 0.439151 2.42522 0.67092L3.09279 2.01418C3.3157 1.9034 3.60613 1.82969 4.09875 1.79045C4.59953 1.75055 5.2415 1.75 6.15587 1.75V0.25ZM2.01596 3.06333C2.25051 2.61433 2.62624 2.24605 3.09279 2.01418L2.42522 0.67092C1.67917 1.04169 1.06974 1.63506 0.686441 2.3688L2.01596 3.06333ZM6.15587 22.25C5.24151 22.25 4.59954 22.2494 4.09876 22.2095C3.60616 22.1703 3.31571 22.0966 3.09279 21.9858L2.42522 23.329C2.89157 23.5608 3.39725 23.6584 3.97961 23.7048C4.55379 23.7505 5.26562 23.75 6.15587 23.75V22.25ZM0.25 17.9714C0.25 18.8388 0.249387 19.5356 0.296517 20.0983C0.344427 20.6702 0.445545 21.1702 0.686441 21.6313L2.01596 20.9368C1.90566 20.7256 1.83117 20.4493 1.79128 19.9731C1.75061 19.4875 1.75 18.8641 1.75 17.9714H0.25ZM3.09279 21.9858C2.62616 21.7539 2.25047 21.3857 2.01596 20.9368L0.686441 21.6313C1.06978 22.3651 1.67926 22.9583 2.42522 23.329L3.09279 21.9858ZM29.25 17.9714C29.25 18.8642 29.2495 19.4876 29.2089 19.9732C29.1691 20.4495 29.0946 20.7257 28.9844 20.9368L30.3139 21.6313C30.5548 21.1701 30.6559 20.6701 30.7037 20.0981C30.7507 19.5355 30.75 18.8387 30.75 17.9714H29.25ZM24.8448 23.75C25.735 23.75 26.4465 23.7505 27.0204 23.7048C27.6026 23.6584 28.1078 23.5608 28.5741 23.329L27.9065 21.9858C27.6835 22.0966 27.3933 22.1703 26.9012 22.2095C26.4008 22.2494 25.7591 22.25 24.8448 22.25V23.75ZM28.9844 20.9368C28.7501 21.3852 28.3737 21.7536 27.9065 21.9858L28.5741 23.329C29.3196 22.9586 29.9303 22.3656 30.3139 21.6313L28.9844 20.9368ZM30.75 6.02849C30.75 5.16118 30.7507 4.46441 30.7037 3.90184C30.6558 3.32993 30.5548 2.83001 30.3139 2.3688L28.9844 3.06333C29.0947 3.27442 29.1691 3.55062 29.2089 4.02681C29.2495 4.51235 29.25 5.13565 29.25 6.02849H30.75ZM24.8448 1.75C25.7591 1.75 26.4008 1.75056 26.9012 1.79045C27.3934 1.82968 27.6835 1.90336 27.9065 2.01418L28.5741 0.67092C28.1078 0.439192 27.6025 0.341595 27.0204 0.29519C26.4465 0.249445 25.735 0.25 24.8448 0.25V1.75ZM30.3139 2.3688C29.9303 1.63457 29.3196 1.04144 28.5741 0.67092L27.9065 2.01418C28.3736 2.2463 28.7501 2.61483 28.9844 3.06333L30.3139 2.3688ZM7.44444 17.4643H13.8889V15.9643H7.44444V17.4643ZM1 11.1786H30V9.67857H1V11.1786ZM1 8.03571H30V6.53571H1V8.03571Z" fill="#878787"/>
</svg>
