<svg width="27" height="27" viewBox="0 0 27 27" fill="none" xmlns="http://www.w3.org/2000/svg">
<path d="M25.6667 21.5696V13.0165V13.0154C25.6667 12.1924 25.6667 11.7807 25.5665 11.3975C25.4778 11.0578 25.3316 10.7357 25.1344 10.4452C24.9119 10.1174 24.6022 9.84623 23.9823 9.30378L16.5823 2.82878C15.4313 1.82163 14.8557 1.31812 14.208 1.12658C13.6373 0.957806 13.0293 0.957806 12.4586 1.12658C11.8113 1.31802 11.2364 1.82108 10.0866 2.82712L10.0847 2.82878L2.68469 9.30378L2.68323 9.30506C2.06425 9.84667 1.75455 10.1177 1.53221 10.4452C1.33501 10.7357 1.18893 11.0578 1.10016 11.3975C1 11.7808 1 12.1928 1 13.0165V21.5696C1 23.0063 1 23.7245 1.2347 24.2911C1.54764 25.0466 2.14824 25.6469 2.90375 25.9598C3.47038 26.1945 4.1887 26.1945 5.62536 26.1945C7.06201 26.1945 7.77998 26.1945 8.34661 25.9598C9.10211 25.6469 9.7022 25.0466 10.0151 24.2911C10.2498 23.7245 10.25 23.0061 10.25 21.5695V20.0278C10.25 18.3249 11.6305 16.9445 13.3333 16.9445C15.0362 16.9445 16.4167 18.3249 16.4167 20.0278V21.5695V21.5695C16.4167 23.0061 16.4167 23.7245 16.6514 24.2911C16.9643 25.0466 17.5649 25.6469 18.3204 25.9598C18.887 26.1945 19.6054 26.1945 21.042 26.1945C22.4787 26.1945 23.1966 26.1945 23.7633 25.9598C24.5188 25.6469 25.1189 25.0466 25.4318 24.2911C25.6665 23.7245 25.6667 23.0063 25.6667 21.5696Z" fill="#FFEBD2" stroke="#EBB376" stroke-width="1.5" stroke-linecap="round" stroke-linejoin="round"/>
</svg>
