<svg width="23" height="23" viewBox="0 0 23 23" fill="none" xmlns="http://www.w3.org/2000/svg">
<path d="M4.23012 13.9781L4.6034 13.6048C4.72384 13.4843 4.79165 13.321 4.79165 13.1507V9.58333C4.79165 5.87843 7.79508 2.87501 11.5 2.875C15.2049 2.87499 18.2083 5.87842 18.2083 9.58333V13.1506C18.2083 13.321 18.276 13.4843 18.3964 13.6048L18.7697 13.9781C18.884 14.0924 18.9413 14.1496 18.9869 14.213C19.073 14.3329 19.1301 14.4711 19.154 14.6168C19.1667 14.6939 19.1668 14.7747 19.1668 14.9364C19.1668 15.3059 19.1668 15.4906 19.1166 15.6397C19.0209 15.9232 18.7983 16.1457 18.5148 16.2414C18.3657 16.2916 18.1807 16.2917 17.8112 16.2917H5.18846C4.81897 16.2917 4.63417 16.2916 4.48515 16.2414C4.20161 16.1457 3.97922 15.9232 3.88358 15.6397C3.83331 15.4906 3.83331 15.3059 3.83331 14.9364C3.83331 14.7747 3.83331 14.6939 3.84596 14.6168C3.86987 14.4711 3.9269 14.3329 4.013 14.213C4.05856 14.1496 4.11579 14.0924 4.23012 13.9781ZM14.375 16.2917V17.25C14.375 18.8378 13.0878 20.125 11.5 20.125C9.91216 20.125 8.62498 18.8378 8.62498 17.25V16.2917H14.375Z" stroke="white" stroke-width="2" stroke-linecap="round" stroke-linejoin="round"/>
</svg>
