<svg width="66" height="65" viewBox="0 0 66 65" fill="none" xmlns="http://www.w3.org/2000/svg">
<path d="M41.6347 6.55986L37.3613 2.96148C34.8489 0.84593 31.1519 0.84593 28.6396 2.96148L24.3667 6.55997C23.2901 7.46653 21.9497 8.01458 20.5397 8.12576L14.9462 8.56692C11.6557 8.82637 9.0417 11.4082 8.77912 14.6595L8.33103 20.1898C8.21851 21.5831 7.66564 22.9056 6.74816 23.9694L3.10575 28.1919C0.964712 30.6743 0.965381 34.3257 3.10642 36.8081L6.74655 41.0306C7.66404 42.0944 8.21997 43.4169 8.33249 44.8102L8.78024 50.3405C9.04282 53.5918 11.6524 56.1736 14.9428 56.4331L20.5415 56.8742C21.9515 56.9854 23.2896 57.5335 24.3662 58.44L28.6386 62.0385C31.151 64.1541 34.8489 64.154 37.3613 62.0384L41.6338 58.4399C42.7104 57.5333 44.0484 56.9856 45.4585 56.8744L51.0571 56.433C54.3476 56.1736 56.9571 53.5917 57.2197 50.3404L57.6674 44.8103C57.78 43.417 58.3359 42.0944 59.2534 41.0306L62.8935 36.808C65.0346 34.3255 65.0362 30.6744 62.8951 28.1919L59.2519 23.9695C58.3344 22.9057 57.7788 21.583 57.6663 20.1897L57.223 14.6594C56.9605 11.4082 54.3458 8.82653 51.0553 8.56707L45.459 8.12558C44.049 8.0144 42.7113 7.46642 41.6347 6.55986Z" fill="#F45454" stroke="white" stroke-width="2" stroke-linecap="round" stroke-linejoin="round"/>
</svg>
