<svg width="13" height="13" viewBox="0 0 13 13" fill="none" xmlns="http://www.w3.org/2000/svg">
<path d="M6.08141 1.21743C6.2159 0.935458 6.28315 0.794471 6.37444 0.749426C6.45386 0.710234 6.54614 0.710234 6.62556 0.749426C6.71685 0.794471 6.7841 0.935458 6.91859 1.21743L8.19452 3.89258C8.23423 3.97583 8.25408 4.01745 8.28309 4.04977C8.30878 4.07838 8.33959 4.10157 8.37381 4.11803C8.41246 4.13663 8.45684 4.14335 8.5456 4.15677L11.3997 4.58851C11.7002 4.63397 11.8505 4.6567 11.92 4.73267C11.9805 4.79877 12.009 4.88959 11.9975 4.97986C11.9842 5.08361 11.8755 5.19327 11.6579 5.4126L9.59341 7.49358C9.52906 7.55845 9.49688 7.59089 9.47611 7.62948C9.45773 7.66365 9.44594 7.70119 9.44139 7.74002C9.43625 7.78387 9.44384 7.82968 9.45903 7.92132L9.94615 10.8606C9.99752 11.1706 10.0232 11.3256 9.97493 11.4176C9.93293 11.4977 9.85827 11.5538 9.77174 11.5704C9.67229 11.5895 9.53779 11.5163 9.26879 11.3699L6.71727 9.9812C6.63777 9.93793 6.59803 9.9163 6.55615 9.9078C6.51907 9.90027 6.48093 9.90027 6.44385 9.9078C6.40197 9.9163 6.36222 9.93793 6.28273 9.9812L3.73121 11.3699C3.46221 11.5163 3.32771 11.5895 3.22826 11.5704C3.14173 11.5538 3.06707 11.4977 3.02506 11.4176C2.97679 11.3256 3.00248 11.1706 3.05385 10.8606L3.54097 7.92132C3.55616 7.82968 3.56375 7.78387 3.55861 7.74002C3.55406 7.70119 3.54227 7.66365 3.52388 7.62948C3.50312 7.59089 3.47094 7.55845 3.40659 7.49358L1.34213 5.4126C1.12455 5.19327 1.01575 5.08361 1.00251 4.97986C0.990995 4.88959 1.01945 4.79877 1.07996 4.73267C1.1495 4.6567 1.29978 4.63397 1.60032 4.58851L4.4544 4.15677C4.54316 4.14335 4.58754 4.13663 4.62619 4.11803C4.66041 4.10157 4.69122 4.07838 4.71691 4.04977C4.74592 4.01745 4.76577 3.97583 4.80548 3.89258L6.08141 1.21743Z" stroke="#525252" stroke-linecap="round" stroke-linejoin="round"/>
</svg>
